<?xml version="1.0" standalone="no"?>
<!DOCTYPE svg PUBLIC "-//W3C//DTD SVG 20010904//EN"
 "http://www.w3.org/TR/2001/REC-SVG-20010904/DTD/svg10.dtd">
<svg version="1.0" xmlns="http://www.w3.org/2000/svg"
 width="3785.000000pt" height="4267.000000pt" viewBox="0 0 3785.000000 4267.000000"
 preserveAspectRatio="xMidYMid meet">

<g transform="translate(0.000000,4267.000000) scale(0.100000,-0.100000)"
fill="#000000" stroke="none">
<path d="M18495 42659 c-2195 -111 -4255 -973 -5880 -2459 -151 -138 -490
-479 -622 -625 -1034 -1146 -1770 -2522 -2144 -4010 -57 -229 -149 -662 -149
-704 0 -11 -4 -23 -10 -26 -5 -3 -108 1 -227 9 -531 38 -1109 62 -1828 76
-858 17 -1679 11 -3435 -25 -1471 -30 -1876 -35 -3022 -35 l-1168 0 0 -17430
0 -17430 12983 0 c14042 0 13067 -3 13592 50 3325 341 6395 2023 8510 4665
1255 1567 2113 3406 2505 5365 111 555 164 953 222 1675 9 116 13 2740 15
11626 l3 11476 -1642 6 c-904 3 -1906 11 -2228 18 -807 17 -3297 18 -3775 1
-777 -26 -1793 -81 -1977 -107 -33 -5 -38 -2 -42 17 -3 13 -22 115 -42 228
-268 1504 -918 2934 -1879 4138 -403 503 -889 996 -1391 1408 -1439 1182
-3230 1910 -5089 2069 -406 34 -893 44 -1280 24z m1045 -2524 c1486 -138 2792
-697 3920 -1679 152 -132 490 -470 621 -621 713 -820 1212 -1763 1478 -2795
41 -160 101 -437 101 -469 0 -16 -12 -19 -82 -25 -1611 -134 -3385 -496 -4808
-981 -624 -213 -1067 -394 -1728 -705 l-112 -53 -248 121 c-1924 939 -3993
1500 -6235 1691 -126 11 -231 22 -233 24 -7 7 49 255 97 432 498 1835 1735
3387 3417 4284 642 342 1350 583 2077 705 258 44 466 66 835 90 128 9 746 -4
900 -19z m-11720 -6755 c1255 -22 1543 -35 2880 -136 1508 -113 1462 -109
1815 -154 2046 -259 3699 -696 5205 -1376 269 -121 744 -360 992 -498 114 -64
210 -116 213 -116 3 0 53 27 113 61 281 160 662 346 1047 511 1439 618 3257
1071 5405 1347 325 42 2722 247 3110 265 639 32 1208 50 2050 67 645 13 2987
15 4583 4 l1107 -7 0 -10467 c0 -6793 -4 -10561 -10 -10736 -15 -409 -50 -811
-101 -1170 -296 -2085 -1169 -4018 -2533 -5605 -333 -387 -782 -834 -1213
-1208 -1171 -1015 -2592 -1794 -4062 -2228 -817 -241 -1649 -385 -2510 -434
-126 -7 -4022 -10 -12293 -10 l-12108 0 0 15930 0 15930 213 0 c198 0 1289 11
2897 29 1006 12 2566 12 3200 1z"/>
<path d="M10355 29003 c-1000 -47 -1937 -247 -2850 -608 -2045 -806 -3733
-2366 -4700 -4341 -521 -1063 -813 -2182 -886 -3386 -13 -231 -7 -992 11
-1193 103 -1191 390 -2229 896 -3245 351 -704 757 -1309 1285 -1915 153 -176
630 -651 813 -811 1875 -1632 4269 -2393 6745 -2143 841 85 1713 306 2482 629
l144 61 60 -63 c33 -35 98 -104 145 -153 47 -50 150 -160 230 -244 79 -84 151
-161 160 -171 9 -10 90 -96 180 -191 91 -95 203 -214 250 -263 47 -50 122
-129 167 -176 45 -47 91 -96 101 -107 16 -19 81 -88 388 -413 44 -47 119 -125
165 -175 47 -49 124 -130 170 -180 47 -49 124 -130 170 -180 47 -49 124 -130
170 -180 47 -49 124 -130 170 -180 47 -49 125 -133 175 -185 49 -52 125 -133
170 -180 44 -47 115 -121 156 -165 42 -44 90 -96 108 -115 18 -19 71 -75 118
-125 82 -86 160 -168 336 -355 115 -122 237 -252 336 -356 47 -49 150 -159
230 -244 183 -195 293 -312 395 -418 l81 -84 479 508 c264 280 1169 1238 2010
2129 842 891 1649 1746 1794 1900 145 154 282 299 305 322 l41 42 130 -55
c489 -206 1105 -397 1630 -503 1839 -375 3752 -160 5445 612 2065 941 3697
2647 4548 4752 562 1393 758 2924 567 4435 -234 1845 -1048 3569 -2332 4935
-1326 1411 -3066 2345 -4967 2665 -490 82 -809 110 -1349 117 -546 7 -914 -15
-1392 -83 -2128 -303 -4062 -1370 -5475 -3019 -547 -639 -1045 -1433 -1373
-2188 l-64 -147 -53 122 c-356 821 -862 1614 -1475 2318 -152 174 -621 643
-795 795 -1531 1335 -3371 2085 -5390 2195 -164 9 -695 11 -855 3z m935 -1513
c1174 -96 2225 -426 3200 -1003 581 -344 1170 -817 1619 -1300 969 -1043 1589
-2257 1855 -3633 182 -944 175 -1955 -20 -2889 -238 -1134 -734 -2186 -1458
-3090 -240 -299 -610 -688 -881 -924 -1139 -995 -2507 -1606 -3985 -1780 -281
-34 -406 -42 -735 -48 -1832 -34 -3575 600 -4960 1806 -163 142 -490 465 -643
636 -772 862 -1325 1881 -1623 2995 -116 434 -186 845 -231 1350 -17 195 -17
896 0 1105 90 1093 395 2108 913 3032 1092 1949 3016 3301 5208 3663 283 46
518 71 906 94 109 7 708 -3 835 -14z m16345 0 c1446 -119 2739 -604 3867
-1452 1582 -1189 2616 -2952 2872 -4898 50 -378 60 -537 60 -965 1 -407 -6
-539 -45 -875 -173 -1503 -824 -2933 -1853 -4069 -144 -159 -445 -455 -601
-592 -695 -607 -1481 -1070 -2345 -1384 -844 -306 -1716 -449 -2635 -432 -520
10 -958 61 -1444 168 -2519 554 -4575 2411 -5387 4864 -442 1337 -490 2769
-138 4145 58 228 72 278 136 470 442 1342 1270 2531 2388 3429 1192 957 2638
1509 4190 1600 187 11 755 6 935 -9z m-8628 -10930 c206 -466 543 -1062 824
-1457 32 -46 59 -85 59 -87 0 -2 -34 3 -75 10 -519 90 -1118 95 -1680 13 -77
-11 -150 -23 -163 -26 -18 -4 10 43 131 223 231 346 385 610 566 971 85 169
207 432 243 523 l10 25 15 -35 c8 -19 40 -91 70 -160z m458 -2599 c277 -38
504 -88 735 -163 819 -265 1492 -775 1926 -1460 35 -56 64 -107 64 -114 0 -7
-318 -350 -707 -762 -390 -412 -1122 -1188 -1628 -1725 -506 -536 -924 -975
-930 -975 -5 0 -744 778 -1642 1729 l-1632 1730 41 67 c557 916 1545 1528
2698 1672 225 28 215 28 585 25 277 -2 368 -7 490 -24z"/>
<path d="M11458 24723 c-13 -3 -1 -25 61 -106 227 -300 365 -619 437 -1012 27
-144 27 -586 0 -730 -44 -244 -106 -436 -207 -641 -107 -218 -235 -399 -414
-583 -186 -192 -377 -331 -626 -455 -452 -225 -961 -292 -1467 -190 -680 136
-1275 591 -1580 1209 -32 66 -63 131 -69 145 -9 23 -12 21 -52 -48 -23 -39
-80 -149 -126 -243 -682 -1387 -636 -3045 120 -4396 701 -1250 1922 -2114
3335 -2357 305 -53 409 -61 805 -61 396 0 500 8 805 61 562 97 1071 280 1565
564 543 311 1041 754 1428 1267 1155 1532 1259 3645 261 5295 -577 954 -1491
1686 -2546 2039 -405 135 -799 212 -1238 239 -163 10 -459 12 -492 3z"/>
<path d="M25957 24722 c-15 -6 -10 -16 34 -71 260 -320 436 -760 480 -1196 14
-144 7 -418 -16 -560 -117 -750 -598 -1392 -1286 -1719 -737 -351 -1636 -269
-2299 208 -311 224 -552 508 -723 854 l-71 143 -33 -58 c-66 -112 -222 -439
-276 -578 -188 -476 -294 -955 -327 -1470 -43 -682 70 -1396 325 -2040 71
-181 241 -520 349 -699 712 -1175 1907 -1992 3246 -2220 447 -76 974 -87 1425
-30 519 66 1038 225 1513 463 1037 519 1858 1414 2282 2487 154 389 251 775
305 1214 23 180 32 707 16 907 -80 1004 -453 1909 -1115 2703 -98 118 -430
449 -551 549 -759 630 -1634 1000 -2590 1096 -176 17 -660 30 -688 17z"/>
</g>
</svg>
